<?xml version="1.0" encoding="UTF-8"?>
<!DOCTYPE svg PUBLIC "-//W3C//DTD SVG 1.1//EN" "http://www.w3.org/Graphics/SVG/1.1/DTD/svg11.dtd">
<svg xmlns="http://www.w3.org/2000/svg" version="1.1" width="1584px" height="396px" style="shape-rendering:geometricPrecision; text-rendering:geometricPrecision; image-rendering:optimizeQuality; fill-rule:evenodd; clip-rule:evenodd" xmlns:xlink="http://www.w3.org/1999/xlink">
<g><path style="opacity:1" fill="#fefefe" d="M -0.5,-0.5 C 527.5,-0.5 1055.5,-0.5 1583.5,-0.5C 1583.5,131.5 1583.5,263.5 1583.5,395.5C 1055.5,395.5 527.5,395.5 -0.5,395.5C -0.5,263.5 -0.5,131.5 -0.5,-0.5 Z"/></g>
<g><path style="opacity:1" fill="#ffbd5a" d="M 782.5,87.5 C 807.704,85.175 824.537,95.8417 833,119.5C 836.583,145.531 826.083,162.697 801.5,171C 774.767,175.221 757.601,164.388 750,138.5C 747.24,112.773 758.073,95.7727 782.5,87.5 Z"/></g>
<g><path style="opacity:1" fill="#fff8ee" d="M 789.5,106.5 C 790.833,106.5 792.167,106.5 793.5,106.5C 793.5,107.833 793.5,109.167 793.5,110.5C 798.987,111.813 802.82,115.147 805,120.5C 805.333,126.167 805.667,131.833 806,137.5C 814.138,145.274 812.304,148.608 800.5,147.5C 794.419,155.423 788.419,155.423 782.5,147.5C 770.741,148.647 768.907,145.314 777,137.5C 777.333,131.833 777.667,126.167 778,120.5C 780.18,115.147 784.013,111.813 789.5,110.5C 789.5,109.167 789.5,107.833 789.5,106.5 Z"/></g>
<g><path style="opacity:1" fill="#ffbd5b" d="M 803.5,140.5 C 795.833,141.833 788.167,141.833 780.5,140.5C 780.783,139.711 781.283,139.044 782,138.5C 782.333,132.167 782.667,125.833 783,119.5C 785.897,114.845 790.063,113.345 795.5,115C 797.57,115.948 799.07,117.448 800,119.5C 800.333,125.5 800.667,131.5 801,137.5C 801.852,138.571 802.685,139.571 803.5,140.5 Z"/></g>
<g><path style="opacity:1" fill="#ffd18b" d="M 780.5,140.5 C 788.167,141.833 795.833,141.833 803.5,140.5C 804.043,140.56 804.376,140.893 804.5,141.5C 795.853,142.665 787.186,142.832 778.5,142C 779.044,141.283 779.711,140.783 780.5,140.5 Z"/></g>
<g><path style="opacity:1" fill="#ffc775" d="M 787.5,146.5 C 790.247,146.187 792.914,146.52 795.5,147.5C 792.277,150.351 789.61,150.017 787.5,146.5 Z"/></g>
<g><path style="opacity:1" fill="#f6f6f6" d="M 661.5,201.5 C 668.818,201.371 675.651,203.038 682,206.5C 684.149,206.342 685.983,205.508 687.5,204C 692.104,202.448 695.437,203.782 697.5,208C 703.756,208.295 709.923,209.129 716,210.5C 720.509,209.898 725.009,209.232 729.5,208.5C 733.735,209.189 737.902,210.189 742,211.5C 749.837,206.98 757.17,207.647 764,213.5C 764.667,214.833 765.333,216.167 766,217.5C 766.884,224.582 766.551,231.582 765,238.5C 764.5,240.333 763.333,241.5 761.5,242C 757.922,243.037 754.256,243.537 750.5,243.5C 742.023,242.192 733.69,241.192 725.5,240.5C 722.278,241.363 719.111,242.363 716,243.5C 709.37,243.587 702.536,243.421 695.5,243C 693.109,241.965 690.776,241.798 688.5,242.5C 684.971,241.394 681.638,240.727 678.5,240.5C 669.162,244.179 659.828,244.679 650.5,242C 642.833,238.333 635.167,234.667 627.5,231C 622.321,223.103 623.988,217.103 632.5,213C 638.054,210.148 643.887,208.315 650,207.5C 650.333,207.833 650.667,208.167 651,208.5C 653.998,205.262 657.498,202.929 661.5,201.5 Z"/></g>
<g><path style="opacity:1" fill="#f6f6f6" d="M 874.5,201.5 C 878.215,202.079 882.215,202.912 886.5,204C 889.224,208.468 893.058,209.968 898,208.5C 901.907,209.191 905.741,210.191 909.5,211.5C 913.259,210.191 917.093,209.191 921,208.5C 926.938,209.6 932.605,209.6 938,208.5C 944.264,209.477 950.097,211.644 955.5,215C 962.907,224.134 960.907,230.8 949.5,235C 943.058,237.188 936.725,239.521 930.5,242C 926.736,242.985 922.903,243.485 919,243.5C 910.31,242.248 901.977,241.248 894,240.5C 889.246,241.73 884.413,242.397 879.5,242.5C 870.157,241.528 860.823,241.861 851.5,243.5C 849.833,243.333 848.167,243.167 846.5,243C 843.657,241.483 840.823,239.983 838,238.5C 831.547,242.761 824.381,244.427 816.5,243.5C 809.474,243.362 802.474,242.862 795.5,242C 792.681,241.088 790.014,239.922 787.5,238.5C 783.572,241.202 779.238,242.035 774.5,241C 772.307,238.598 770.974,235.764 770.5,232.5C 771.808,225.128 773.308,217.795 775,210.5C 778.572,203.437 783.905,201.771 791,205.5C 795.048,203.874 799.215,203.374 803.5,204C 805.5,204.667 806.833,206 807.5,208C 809.101,208.273 810.601,208.773 812,209.5C 817.36,208.066 822.526,208.733 827.5,211.5C 829.115,210.846 830.782,210.346 832.5,210C 842.876,209.242 853.209,208.909 863.5,209C 866.333,204.955 870,202.455 874.5,201.5 Z"/></g>
<g><path style="opacity:1" fill="#eeedec" d="M 688.5,208.5 C 689.833,209.833 691.167,209.833 692.5,208.5C 696.279,211.851 700.612,212.518 705.5,210.5C 709.329,210.887 712.996,211.887 716.5,213.5C 725.194,209.226 733.694,209.559 742,214.5C 749.326,208.876 756.326,209.21 763,215.5C 765.762,223.179 765.596,230.845 762.5,238.5C 761.335,239.584 760.002,240.417 758.5,241C 747.411,241.965 736.577,240.798 726,237.5C 719.545,240.654 712.711,241.988 705.5,241.5C 696.497,240.668 687.497,239.668 678.5,238.5C 672.81,240.338 666.977,241.672 661,242.5C 658.453,242.238 655.953,241.738 653.5,241C 645.584,237.14 637.584,233.473 629.5,230C 626.231,226.547 625.731,222.714 628,218.5C 635.082,212.717 643.249,209.883 652.5,210C 658.644,203.494 665.977,201.828 674.5,205C 677.677,206.85 680.843,208.683 684,210.5C 685.406,209.586 686.906,208.92 688.5,208.5 Z"/></g>
<g><path style="opacity:1" fill="#fec36b" d="M 692.5,208.5 C 691.167,209.833 689.833,209.833 688.5,208.5C 688.5,207.5 688.5,206.5 688.5,205.5C 689.833,205.5 691.167,205.5 692.5,205.5C 692.5,206.5 692.5,207.5 692.5,208.5 Z"/></g>
<g><path style="opacity:1" fill="#ecebea" d="M 880.5,205.5 C 880.5,206.833 880.5,208.167 880.5,209.5C 881.833,209.5 883.167,209.5 884.5,209.5C 884.5,208.167 884.5,206.833 884.5,205.5C 885.587,209.072 888.087,211.072 892,211.5C 898.451,209.806 904.451,210.806 910,214.5C 916.581,209.991 923.581,209.324 931,212.5C 940.494,209.823 948.994,211.823 956.5,218.5C 959.533,223.54 958.533,227.706 953.5,231C 944.56,234.647 935.56,237.98 926.5,241C 915.207,241.936 904.373,240.77 894,237.5C 890.559,238.689 887.059,239.689 883.5,240.5C 877.202,239.86 870.869,239.526 864.5,239.5C 858.585,241.125 852.585,241.625 846.5,241C 843.905,238.787 841.072,236.953 838,235.5C 835.341,238.148 832.174,239.981 828.5,241C 817.474,241.666 806.474,241.332 795.5,240C 792.677,238.517 789.843,237.017 787,235.5C 785.177,236.651 783.344,237.818 781.5,239C 775.697,240.04 772.697,237.54 772.5,231.5C 773.346,225.437 774.513,219.437 776,213.5C 776.723,210.78 778.223,208.613 780.5,207C 784.016,206.501 787.516,206.667 791,207.5C 793.87,206.981 796.703,206.314 799.5,205.5C 800.894,205.621 802.228,205.954 803.5,206.5C 804.472,209.105 806.139,211.105 808.5,212.5C 814.964,209.764 821.297,210.098 827.5,213.5C 836.237,211.893 845.07,210.893 854,210.5C 857.862,211.549 861.695,211.549 865.5,210.5C 869.043,204.617 874.043,202.951 880.5,205.5 Z"/></g>
<g><path style="opacity:1" fill="#fcbf63" d="M 874.5,211.5 C 872.729,219.688 871.062,228.021 869.5,236.5C 868.127,236.657 866.793,236.49 865.5,236C 867.398,227.237 869.064,218.403 870.5,209.5C 870.864,206.155 872.531,205.155 875.5,206.5C 874.691,208.071 874.357,209.738 874.5,211.5 Z"/></g>
<g><path style="opacity:1" fill="#fdc36b" d="M 880.5,205.5 C 881.833,205.5 883.167,205.5 884.5,205.5C 884.5,206.833 884.5,208.167 884.5,209.5C 883.167,209.5 881.833,209.5 880.5,209.5C 880.5,208.167 880.5,206.833 880.5,205.5 Z"/></g>
<g><path style="opacity:1" fill="#fcbe61" d="M 799.5,212.5 C 795.873,214.794 792.539,217.46 789.5,220.5C 793.192,225.851 796.859,231.185 800.5,236.5C 798.712,236.785 797.045,236.452 795.5,235.5C 792.333,231.167 789.167,226.833 786,222.5C 782.04,226.177 780.206,230.844 780.5,236.5C 779.167,236.5 777.833,236.5 776.5,236.5C 778.039,226.807 779.705,217.14 781.5,207.5C 782.833,207.5 784.167,207.5 785.5,207.5C 784.92,211.879 784.42,216.212 784,220.5C 788.833,216.333 793.667,212.167 798.5,208C 800.167,207.333 801.833,207.333 803.5,208C 801.959,209.371 800.625,210.871 799.5,212.5 Z"/></g>
<g><path style="opacity:1" fill="#fcc066" d="M 650.5,213.5 C 645.053,216.726 639.387,219.726 633.5,222.5C 638.826,225.663 644.493,227.997 650.5,229.5C 650.762,230.978 650.429,232.311 649.5,233.5C 642.807,230.486 636.141,227.486 629.5,224.5C 629.286,222.856 629.62,221.356 630.5,220C 636.833,217.167 643.167,214.333 649.5,211.5C 650.298,211.957 650.631,212.624 650.5,213.5 Z"/></g>
<g><path style="opacity:1" fill="#e0ddd8" d="M 799.5,212.5 C 799.938,212.435 800.272,212.601 800.5,213C 796.583,216.328 795.083,220.495 796,225.5C 797.028,227.361 798.528,228.695 800.5,229.5C 801.94,228.048 803.606,227.048 805.5,226.5C 803.279,235.11 806.613,238.277 815.5,236C 816.333,235.167 817.167,234.333 818,233.5C 819.911,236.303 822.411,236.97 825.5,235.5C 823.495,234.663 822.495,233.163 822.5,231C 823.492,226.875 824.159,222.709 824.5,218.5C 826.836,219.304 829.17,218.971 831.5,217.5C 829.912,223.774 828.579,230.107 827.5,236.5C 828.5,236.5 829.5,236.5 830.5,236.5C 826.104,238.033 821.437,238.7 816.5,238.5C 811.038,238.629 805.705,237.962 800.5,236.5C 796.859,231.185 793.192,225.851 789.5,220.5C 792.539,217.46 795.873,214.794 799.5,212.5 Z"/></g>
<g><path style="opacity:1" fill="#fcc065" d="M 934.5,212.5 C 941.245,214.702 947.911,217.202 954.5,220C 955.833,221.667 955.833,223.333 954.5,225C 947.911,227.798 941.245,230.298 934.5,232.5C 934.281,231.325 934.614,230.325 935.5,229.5C 940.651,227.424 945.651,225.09 950.5,222.5C 945.651,219.91 940.651,217.576 935.5,215.5C 934.614,214.675 934.281,213.675 934.5,212.5 Z"/></g>
<g><path style="opacity:1" fill="#efd2a7" d="M 720.5,214.5 C 722.357,213.235 724.024,213.568 725.5,215.5C 724.012,218.186 723.345,217.853 723.5,214.5C 722.5,214.5 721.5,214.5 720.5,214.5 Z"/></g>
<g><path style="opacity:1" fill="#fcbf63" d="M 737.5,219.5 C 736.372,225.141 735.372,230.808 734.5,236.5C 733.167,236.5 731.833,236.5 730.5,236.5C 731.417,231.329 732.417,226.162 733.5,221C 732.381,216.375 729.714,215.375 725.5,218C 724.299,218.903 723.465,220.069 723,221.5C 721.842,226.457 721.008,231.457 720.5,236.5C 719.167,236.5 717.833,236.5 716.5,236.5C 717.192,229.04 718.525,221.707 720.5,214.5C 721.5,214.5 722.5,214.5 723.5,214.5C 723.345,217.853 724.012,218.186 725.5,215.5C 728.177,213.568 731.177,213.068 734.5,214C 736.607,215.264 737.607,217.097 737.5,219.5 Z"/></g>
<g><path style="opacity:1" fill="#fcbf63" d="M 759.5,236.5 C 757.019,236.677 755.186,235.677 754,233.5C 751.091,236.394 747.591,237.227 743.5,236C 739.904,232.728 739.571,229.062 742.5,225C 746.884,222.792 751.551,221.959 756.5,222.5C 757.247,216.933 754.913,215.1 749.5,217C 748.529,218.481 747.196,219.315 745.5,219.5C 743.972,219.483 743.472,218.816 744,217.5C 749.058,212.617 754.391,212.284 760,216.5C 760.422,221.403 759.922,226.236 758.5,231C 758.495,233.163 759.495,234.663 761.5,235.5C 761.043,236.298 760.376,236.631 759.5,236.5 Z"/></g>
<g><path style="opacity:1" fill="#fcbf62" d="M 824.5,218.5 C 824.159,222.709 823.492,226.875 822.5,231C 822.495,233.163 823.495,234.663 825.5,235.5C 822.411,236.97 819.911,236.303 818,233.5C 817.167,234.333 816.333,235.167 815.5,236C 806.613,238.277 803.279,235.11 805.5,226.5C 806.306,225.272 807.306,224.272 808.5,223.5C 812.452,222.728 816.452,222.395 820.5,222.5C 821.247,216.933 818.913,215.1 813.5,217C 812.529,218.481 811.196,219.315 809.5,219.5C 808.624,219.631 807.957,219.298 807.5,218.5C 811.486,213.37 816.486,212.203 822.5,215C 823.823,215.816 824.489,216.983 824.5,218.5 Z"/></g>
<g><path style="opacity:1" fill="#fdbf62" d="M 842.5,215.5 C 839.413,216.053 836.913,217.72 835,220.5C 833.26,225.7 832.093,231.034 831.5,236.5C 831.167,236.5 830.833,236.5 830.5,236.5C 829.5,236.5 828.5,236.5 827.5,236.5C 828.579,230.107 829.912,223.774 831.5,217.5C 831.5,216.5 831.5,215.5 831.5,214.5C 833.451,214.227 834.951,214.893 836,216.5C 838.105,213.24 840.271,212.906 842.5,215.5 Z"/></g>
<g><path style="opacity:1" fill="#fcbf62" d="M 861.5,215.5 C 864.764,222.608 863.764,229.108 858.5,235C 846.465,239.24 841.298,235.073 843,222.5C 843.926,220.308 845.093,218.308 846.5,216.5C 851.224,212.876 856.224,212.543 861.5,215.5 Z"/></g>
<g><path style="opacity:1" fill="#fcbf64" d="M 883.5,216.5 C 881.036,222.82 879.703,229.486 879.5,236.5C 878.167,236.5 876.833,236.5 875.5,236.5C 876.197,229.019 877.53,221.686 879.5,214.5C 880.568,213.566 881.901,213.232 883.5,213.5C 883.5,214.5 883.5,215.5 883.5,216.5 Z"/></g>
<g><path style="opacity:1" fill="#fdbf62" d="M 904.5,214.5 C 904.971,216.288 905.304,218.122 905.5,220C 904.246,225.434 903.579,230.934 903.5,236.5C 902.167,236.5 900.833,236.5 899.5,236.5C 899.71,231.281 900.377,226.115 901.5,221C 901.549,216.849 899.549,215.516 895.5,217C 893.622,218.543 892.122,220.376 891,222.5C 889.971,227.144 889.138,231.81 888.5,236.5C 887.127,236.657 885.793,236.49 884.5,236C 885.764,229.514 887.097,223.014 888.5,216.5C 889.811,213.867 891.311,213.867 893,216.5C 896.383,213.408 900.217,212.741 904.5,214.5 Z"/></g>
<g><path style="opacity:1" fill="#fcbf62" d="M 928.5,236.5 C 925.14,237.21 923.307,235.876 923,232.5C 918.625,237.381 913.958,237.715 909,233.5C 907.707,229.418 908.874,226.251 912.5,224C 916.73,222.71 921.064,222.21 925.5,222.5C 925.496,217.011 922.829,215.178 917.5,217C 916.296,219.277 914.63,219.777 912.5,218.5C 913.127,217.583 913.461,216.583 913.5,215.5C 919.153,212.352 924.319,213.019 929,217.5C 929.033,222.018 928.533,226.518 927.5,231C 927.748,232.716 928.415,234.216 929.5,235.5C 929.376,236.107 929.043,236.44 928.5,236.5 Z"/></g>
<g><path style="opacity:1" fill="#d9d6d3" d="M 808.5,223.5 C 809.234,222.292 809.567,220.959 809.5,219.5C 811.196,219.315 812.529,218.481 813.5,217C 818.913,215.1 821.247,216.933 820.5,222.5C 816.452,222.395 812.452,222.728 808.5,223.5 Z"/></g>
<g><path style="opacity:1" fill="#dddad6" d="M 759.5,236.5 C 759.389,237.117 759.056,237.617 758.5,238C 750.393,238.827 742.393,238.327 734.5,236.5C 735.372,230.808 736.372,225.141 737.5,219.5C 740.443,224.544 743.11,224.544 745.5,219.5C 747.196,219.315 748.529,218.481 749.5,217C 754.913,215.1 757.247,216.933 756.5,222.5C 751.551,221.959 746.884,222.792 742.5,225C 739.571,229.062 739.904,232.728 743.5,236C 747.591,237.227 751.091,236.394 754,233.5C 755.186,235.677 757.019,236.677 759.5,236.5 Z"/></g>
<g><path style="opacity:1" fill="#dfddd9" d="M 904.5,214.5 C 906.366,215.014 908.2,215.68 910,216.5C 911.138,216.011 912.305,215.678 913.5,215.5C 913.461,216.583 913.127,217.583 912.5,218.5C 914.63,219.777 916.296,219.277 917.5,217C 922.829,215.178 925.496,217.011 925.5,222.5C 921.064,222.21 916.73,222.71 912.5,224C 908.874,226.251 907.707,229.418 909,233.5C 913.958,237.715 918.625,237.381 923,232.5C 923.307,235.876 925.14,237.21 928.5,236.5C 928.082,237.222 927.416,237.722 926.5,238C 918.719,238.868 911.052,238.368 903.5,236.5C 903.579,230.934 904.246,225.434 905.5,220C 905.304,218.122 904.971,216.288 904.5,214.5 Z"/></g>
<g><path style="opacity:1" fill="#d7d4d1" d="M 747.5,225.5 C 750.167,225.5 752.833,225.5 755.5,225.5C 755.343,232.088 752.01,234.588 745.5,233C 743.84,229.777 744.506,227.277 747.5,225.5 Z"/></g>
<g><path style="opacity:1" fill="#d7d5d1" d="M 811.5,225.5 C 814.167,225.5 816.833,225.5 819.5,225.5C 819.343,232.088 816.01,234.588 809.5,233C 807.84,229.777 808.506,227.277 811.5,225.5 Z"/></g>
<g><path style="opacity:1" fill="#d8d4ce" d="M 915.5,225.5 C 918.5,225.5 921.5,225.5 924.5,225.5C 923.672,232.161 920.006,234.661 913.5,233C 912.941,232.275 912.608,231.442 912.5,230.5C 913.092,228.577 914.092,226.911 915.5,225.5 Z"/></g>
<g><path style="opacity:1" fill="#e2e0dd" d="M 870.5,209.5 C 869.064,218.403 867.398,227.237 865.5,236C 866.793,236.49 868.127,236.657 869.5,236.5C 871.062,228.021 872.729,219.688 874.5,211.5C 875.922,212.925 877.589,213.925 879.5,214.5C 877.53,221.686 876.197,229.019 875.5,236.5C 876.833,236.5 878.167,236.5 879.5,236.5C 879.703,229.486 881.036,222.82 883.5,216.5C 884.999,217.494 886.666,217.494 888.5,216.5C 887.097,223.014 885.764,229.514 884.5,236C 885.793,236.49 887.127,236.657 888.5,236.5C 889.138,231.81 889.971,227.144 891,222.5C 892.122,220.376 893.622,218.543 895.5,217C 899.549,215.516 901.549,216.849 901.5,221C 900.377,226.115 899.71,231.281 899.5,236.5C 898.4,233.207 897.233,229.874 896,226.5C 893.513,230.645 890.679,234.478 887.5,238C 878.903,238.687 870.57,238.521 862.5,237.5C 852.531,242.921 844.364,240.921 838,231.5C 836.223,233.79 834.056,235.457 831.5,236.5C 832.093,231.034 833.26,225.7 835,220.5C 836.913,217.72 839.413,216.053 842.5,215.5C 844.099,215.232 845.432,215.566 846.5,216.5C 845.093,218.308 843.926,220.308 843,222.5C 841.298,235.073 846.465,239.24 858.5,235C 863.764,229.108 864.764,222.608 861.5,215.5C 863.199,215.66 864.866,215.494 866.5,215C 867.697,212.985 869.03,211.151 870.5,209.5 Z"/></g>
<g><path style="opacity:1" fill="#e3e1e0" d="M 851.5,216.5 C 857.076,215.251 859.743,217.417 859.5,223C 859.694,231.495 855.861,234.662 848,232.5C 845.436,226.232 846.603,220.898 851.5,216.5 Z"/></g>
<g><path style="opacity:1" fill="#e3e1df" d="M 720.5,214.5 C 718.525,221.707 717.192,229.04 716.5,236.5C 717.833,236.5 719.167,236.5 720.5,236.5C 721.008,231.457 721.842,226.457 723,221.5C 723.465,220.069 724.299,218.903 725.5,218C 729.714,215.375 732.381,216.375 733.5,221C 732.417,226.162 731.417,231.329 730.5,236.5C 729.143,235.315 727.643,234.315 726,233.5C 721.972,237.215 717.305,239.548 712,240.5C 707.521,240.169 702.688,240.002 697.5,240C 691.43,238.663 685.263,237.496 679,236.5C 671.182,240.051 663.016,241.217 654.5,240C 651.567,238.729 648.901,237.062 646.5,235C 641.99,233.997 637.657,232.497 633.5,230.5C 631.722,228.736 630.389,226.736 629.5,224.5C 636.141,227.486 642.807,230.486 649.5,233.5C 650.429,232.311 650.762,230.978 650.5,229.5C 644.493,227.997 638.826,225.663 633.5,222.5C 639.387,219.726 645.053,216.726 650.5,213.5C 652.878,211.122 655.545,209.122 658.5,207.5C 660.428,205.887 662.762,204.887 665.5,204.5C 672.096,204.974 677.763,207.474 682.5,212C 687.17,212.081 691.67,212.914 696,214.5C 699.021,213.148 702.188,212.481 705.5,212.5C 710.372,213.901 715.372,214.568 720.5,214.5 Z"/></g>
<g><path style="opacity:1" fill="#fcbf64" d="M 701.5,213.5 C 705.257,213.071 708.757,213.737 712,215.5C 712.923,217.034 713.423,218.701 713.5,220.5C 712.349,224.766 711.683,229.1 711.5,233.5C 712.5,233.5 713.5,233.5 714.5,233.5C 714.5,234.5 714.5,235.5 714.5,236.5C 712.473,236.662 710.473,236.495 708.5,236C 707.874,235.25 707.374,234.416 707,233.5C 702.855,236.979 698.522,237.312 694,234.5C 692.011,228.708 693.845,224.875 699.5,223C 702.817,222.502 706.15,222.335 709.5,222.5C 709.864,217.341 707.53,215.508 702.5,217C 700.919,219.395 698.919,219.895 696.5,218.5C 697.882,216.451 699.548,214.785 701.5,213.5 Z"/></g>
<g><path style="opacity:1" fill="#d7d5d2" d="M 700.5,225.5 C 703.167,225.5 705.833,225.5 708.5,225.5C 707.668,231.993 704.001,234.659 697.5,233.5C 696.829,230.014 697.829,227.347 700.5,225.5 Z"/></g>
<g><path style="opacity:1" fill="#fcc065" d="M 687.5,213.5 C 688.833,213.5 690.167,213.5 691.5,213.5C 689.395,221.025 688.062,228.692 687.5,236.5C 686.167,236.5 684.833,236.5 683.5,236.5C 684.32,228.735 685.653,221.068 687.5,213.5 Z"/></g>
<g><path style="opacity:1" fill="#fdbe61" d="M 658.5,207.5 C 678.608,205.088 684.775,213.088 677,231.5C 675.167,232.667 673.333,233.833 671.5,235C 665.593,236.361 659.593,236.861 653.5,236.5C 654.27,226.653 655.937,216.986 658.5,207.5 Z"/></g>
<g><path style="opacity:1" fill="#e1dfdc" d="M 661.5,210.5 C 675.053,208.931 679.553,214.598 675,227.5C 670.388,232.889 664.555,234.889 657.5,233.5C 659.091,225.878 660.424,218.211 661.5,210.5 Z"/></g>
<g><path style="opacity:1" fill="#f0f0f0" d="M 667.5,214.5 C 671.352,215.522 673.018,218.022 672.5,222C 672.731,229.119 669.565,231.619 663,229.5C 660.945,223.377 662.445,218.377 667.5,214.5 Z"/></g>
</svg>
